HIERARCHY
ROOT pelvis
{
	OFFSET 0.000000 0.000000 0.000000
	CHANNELS 6 Xposition Yposition Zposition Zrotation Xrotation Yrotation
	JOINT lfemur
	{
		OFFSET 11.446000 0.000000 0.000000
		CHANNELS 3 Zrotation Xrotation Yrotation
		JOINT ltibia
		{
			OFFSET 0.000000 -42.030400 0.000000
			CHANNELS 3 Zrotation Xrotation Yrotation
			JOINT lfoot
			{
				OFFSET 0.000000 -39.930200 0.000000
				CHANNELS 3 Zrotation Xrotation Yrotation
				JOINT ltoes
				{
					OFFSET 0.000000 0.000000 11.775800
					CHANNELS 3 Zrotation Xrotation Yrotation
					End Site
					{
					    OFFSET 0.000000 0.000000 5.000000
					}
				}
			}
		}
	}
	JOINT rfemur
	{
		OFFSET -11.446000 0.000000 0.000000
		CHANNELS 3 Zrotation Xrotation Yrotation
		JOINT rtibia
		{
			OFFSET 0.000000 -42.030400 0.000000
			CHANNELS 3 Zrotation Xrotation Yrotation
			JOINT rfoot
			{
				OFFSET 0.000000 -39.930200 0.000000
				CHANNELS 3 Zrotation Xrotation Yrotation
				JOINT rtoes
				{
					OFFSET 0.000000 0.000000 11.775800
					CHANNELS 3 Zrotation Xrotation Yrotation
					End Site
					{
					    OFFSET 0.000000 0.000000 5.000000
					}
				}
			}
		}
	}
	JOINT thorax
	{
		OFFSET 0.000000 11.255600 -5.000000
		CHANNELS 3 Zrotation Xrotation Yrotation
		JOINT head
		{
			OFFSET 0.000000 43.799300 0.000000
			CHANNELS 3 Zrotation Xrotation Yrotation
			End Site
			{
			    OFFSET 0.000000 5.000000 0.000000
			}
		}
		JOINT lclavicle
		{
			OFFSET 0.000000 39.863000 0.000000
			CHANNELS 3 Zrotation Xrotation Yrotation
			JOINT lhumerus
			{
				OFFSET 17.380600 4.958300 0.000000
				CHANNELS 3 Zrotation Xrotation Yrotation
				JOINT lradius
				{
					OFFSET 0.000000 -27.561300 0.000000
					CHANNELS 3 Zrotation Xrotation Yrotation
					JOINT lhand
					{
						OFFSET 0.000000 -26.933000 0.000000
						CHANNELS 3 Zrotation Xrotation Yrotation
						End Site
						{
						    OFFSET 0.000000 -5.000000 0.000000
						}
					}
				}
			}
		}
		JOINT rclavicle
		{
			OFFSET 0.000000 39.863000 0.000000
			CHANNELS 3 Zrotation Xrotation Yrotation
			JOINT rhumerus
			{
				OFFSET -17.380600 4.958300 0.000000
				CHANNELS 3 Zrotation Xrotation Yrotation
				JOINT rradius
				{
					OFFSET 0.000000 -27.561300 0.000000
					CHANNELS 3 Zrotation Xrotation Yrotation
					JOINT rhand
					{
						OFFSET 0.000000 -26.933000 0.000000
						CHANNELS 3 Zrotation Xrotation Yrotation
						End Site
						{
						    OFFSET 0.000000 -5.000000 0.000000
						}
					}
				}
			}
		}
	}
}
MOTION
Frames: 17
Frame Time:	0.0333333
186.568800 77.821800 10.860200 9.861775 -7.838099 -121.844158 3.313410 -46.611977 4.020742 -0.000000 60.242944 0.000000 -0.000000 -5.244861 3.905880 -0.000000 -1.524730 -0.000000 -0.109054 -28.448668 -6.438654 0.000000 53.558492 -0.000000 0.000000 -21.552221 -2.588513 -0.000000 -29.569176 -0.000000 -6.787236 15.932854 0.882950 5.814760 19.359203 15.507143 -10.197762 -0.000000 -5.163366 28.678429 4.097861 -14.690657 -180.000037 -46.179086 159.705605 31.703614 0.780271 0.000000 21.791035 -0.000000 1.066332 -43.964334 -9.499916 36.292427 -180.000037 -57.303691 -169.553105 -7.497941 -0.954554 -0.000000 
188.257200 76.188000 11.366200 11.243865 -8.190111 -120.246767 4.183710 -51.762971 4.968254 -0.000000 64.103914 0.000000 -0.000000 -5.331259 3.171652 -0.000000 -1.524267 0.000000 1.562258 -33.427336 -3.956883 -0.000000 58.962658 0.000000 0.000000 -23.449831 -5.521688 -0.000000 -29.556697 0.000000 -6.958556 18.535843 0.731918 4.919088 20.151796 15.531890 -9.353859 0.000000 -5.049457 29.236187 1.834812 -13.163078 180.000035 -48.838225 160.154449 29.828032 0.878595 0.000000 20.191343 0.000000 2.385514 -42.019459 -10.906991 34.435988 180.000030 -59.403448 -168.479983 -8.018832 -0.779993 -0.000000 
189.749100 75.503700 11.771500 12.170803 -8.691003 -117.656381 2.922933 -55.137081 4.500453 -0.000000 64.897056 -0.000000 0.000000 -4.574814 2.734256 0.000000 -1.507664 -0.000000 1.434968 -36.427092 -4.497551 -0.000000 61.398578 -0.000000 0.000000 -24.469849 -7.421956 -0.000000 -29.553132 -0.000000 -7.592494 22.322158 0.158686 4.041978 22.608790 14.580301 -8.982765 -0.000000 -5.570632 30.404292 -0.139716 -10.717100 -180.000035 -52.586432 157.177312 30.506100 0.315539 -0.000000 18.778537 -0.000000 3.898980 -40.046354 -12.165300 31.870132 -180.000037 -62.173202 -167.536854 -8.072080 -0.764031 -0.000000 
191.119700 75.664400 12.084300 13.735939 -9.457235 -114.943366 1.660562 -57.709838 5.232863 0.000000 63.653777 -0.000000 0.000000 -3.977861 3.025447 -0.000000 -1.528063 -0.000000 0.484431 -39.121757 -6.073408 0.000000 61.863133 -0.000000 0.000000 -23.826077 -8.386250 0.000000 -29.552285 0.000000 -8.476332 26.305309 -0.023772 3.398945 26.388264 13.737296 -8.726285 0.000000 -6.242042 31.448362 -2.001606 -7.316563 180.000037 -56.806625 156.085253 30.732823 -0.249934 -0.000000 18.085521 0.000000 5.408665 -39.414290 -13.263807 28.200585 -180.000034 -63.440614 -167.362694 -8.772849 -0.524578 -0.000000 
191.373300 76.394900 12.809400 13.204665 -12.946667 -113.221700 -4.549260 -57.075785 5.544498 -0.000000 61.432558 0.000000 -0.000000 -3.051685 6.201576 -0.000000 -1.472056 -0.000000 -6.263118 -40.794310 -10.906544 -0.000000 62.858722 -0.000000 -0.000000 -22.454379 -6.901617 -0.000000 -29.555184 0.000000 -12.787864 31.814343 0.267214 2.469393 31.227368 13.016629 -8.443589 0.000000 -7.028780 32.375798 -4.001669 -2.727658 180.000027 -61.182511 156.418500 30.981991 0.098929 0.000000 16.399117 0.000000 6.845750 -38.967422 -15.674717 24.564198 180.000037 -64.679451 -165.173848 -10.650395 0.113248 -0.000000 
192.393700 76.705700 13.382200 15.800382 -14.968291 -111.441858 -6.008848 -60.041286 8.802139 -0.000000 62.758421 -0.000000 -0.000000 0.162919 6.726132 0.000000 -1.437163 -0.000000 -9.316636 -46.055591 -13.358593 0.000000 65.699972 -0.000000 0.000000 -18.407150 -6.311412 0.000000 -29.561604 0.000000 -15.003597 35.027129 0.584357 1.797152 36.662700 12.156882 -8.172587 0.000000 -8.439444 34.303996 -4.832152 2.465453 -180.000037 -64.473691 154.504321 31.880949 -0.056217 0.000000 15.372033 -0.000000 6.946328 -39.494086 -19.787785 21.466734 -180.000036 -66.504846 -162.825445 -11.509108 0.407614 -0.000000 
193.444900 76.445000 14.188100 20.293094 -16.817891 -110.002194 -6.961113 -64.682405 11.287528 0.000000 65.931119 0.000000 0.000000 3.600368 5.113649 -0.000000 -1.442021 -0.000000 -13.649974 -56.592280 -16.387410 -0.000000 74.071436 -0.000000 -0.000000 -9.690002 -4.133961 0.000000 -29.562199 -0.000000 -16.203808 36.431070 0.048932 -0.167452 42.370315 11.376763 -8.531617 0.000000 -9.205266 38.230430 -5.699026 7.551308 180.000036 -66.466343 153.956463 31.664263 0.639776 0.000000 13.543607 -0.000000 7.164068 -40.309202 -25.093715 19.611793 180.000035 -68.069621 -162.701753 -12.289756 0.694352 0.000000 
194.366300 75.536000 14.595600 24.965644 -16.671492 -109.175984 -3.255989 -68.527710 16.126024 -0.000000 69.973602 0.000000 -0.000000 0.929045 4.780556 0.000000 -1.411121 -0.000000 -16.261085 -66.153593 -19.023581 -0.000000 79.377306 0.000000 -0.000000 -7.212050 -2.475363 0.000000 -29.567574 -0.000000 -16.412396 37.432731 -1.837166 -5.657023 47.477205 14.749497 -8.763089 0.000000 -6.585268 43.194092 -7.445947 11.803825 -180.000033 -68.487279 151.227526 30.381834 0.528476 0.000000 11.802182 0.000000 9.233373 -40.586557 -30.465835 17.223495 -180.000034 -71.180866 -160.005729 -8.838705 -0.481233 0.000000 
194.717700 73.974200 15.045900 29.535869 -17.054929 -108.258541 -0.468486 -71.479109 19.647388 0.000000 70.700942 0.000000 -0.000000 -8.094620 3.974856 0.000000 -1.370292 -0.000000 -22.667924 -72.762719 -24.862308 -0.000000 77.871618 0.000000 0.000000 -9.209508 2.161457 -0.000000 -29.586664 -0.000000 -16.529452 38.848884 -1.661370 -7.993346 52.731208 14.094604 -8.458645 0.000000 -8.087917 47.326452 -9.578510 16.851841 -180.000035 -71.657782 145.250536 32.626514 1.526700 -0.000000 9.774856 -0.000000 11.466183 -45.326113 -34.020212 11.202633 -180.000037 -73.044692 -155.672773 -9.255804 -0.333957 -0.000000 
195.807400 71.517300 14.724500 37.276026 -13.967350 -105.473642 15.554592 -79.574839 32.952147 -0.000000 74.319085 -0.000000 0.000000 -15.723200 2.013477 -0.000000 -1.273978 0.000000 -28.187339 -79.080793 -33.628055 -0.000000 76.465165 -0.000000 0.000000 -14.101105 1.461288 -0.000000 -29.584185 -0.000000 -12.280603 38.210807 -3.288569 -12.600481 58.616331 17.576977 -6.763753 -0.000000 -8.893817 51.084305 -11.737861 20.861979 180.000037 -75.993842 141.192902 31.941220 1.888024 -0.000000 8.176629 0.000000 12.884592 -49.122486 -37.805208 6.252421 180.000037 -76.886556 -153.373238 -11.950264 0.576468 0.000000 
195.112600 69.041700 14.845400 39.724128 -16.026205 -103.094297 30.446243 -83.672261 51.974182 -0.000000 79.739934 0.000000 -0.000000 -17.280654 0.109673 -0.000000 -1.273175 -0.000000 -59.686786 -80.598136 -63.739166 -0.000000 84.076252 0.000000 0.000000 -16.633571 4.640516 0.000000 -29.580295 -0.000000 -14.835958 41.164663 -4.051226 -15.189126 63.863028 19.898191 -3.978755 -0.000000 -10.098101 54.909125 -14.010124 23.937476 -180.000036 -80.648148 140.464678 29.338691 2.001054 -0.000000 7.165118 0.000000 12.620153 -54.057925 -42.256186 0.436492 -180.000034 -82.868630 -148.999759 -13.382675 1.063439 -0.000000 
194.389100 66.386700 15.697800 46.133128 -15.225544 -94.083747 -129.631183 -84.546805 -109.372538 -0.000000 83.807367 0.000000 0.000000 -17.654147 0.796591 -0.000000 -1.270571 -0.000000 -101.422201 -71.320337 -108.585795 -180.000037 87.547117 -180.000037 0.000000 -18.300646 6.709514 0.000000 -29.585274 0.000000 -7.509399 42.127278 -12.190463 -15.988330 68.949225 19.903944 -2.889848 0.000000 -11.686248 61.270003 -16.180237 25.406127 -180.000035 -84.650550 138.385979 26.549217 1.655624 0.000000 5.326149 -0.000000 11.249317 -60.500299 -45.041551 -5.941948 180.000007 -87.947457 -143.374839 -15.468290 1.770019 -0.000000 
193.554300 64.279500 15.479600 50.516788 -15.040425 -91.451835 -156.788444 -80.294918 -134.889939 -0.000000 88.191592 -0.000000 0.000000 -19.498402 -0.449317 0.000000 -1.248503 0.000000 -115.980811 -67.318108 -123.170046 -180.000037 81.742739 -180.000037 -0.000000 -18.217337 7.282349 -0.000000 -29.590185 -0.000000 -6.790947 43.727417 -13.245790 -21.395604 72.745609 24.865195 -2.041512 0.000000 -11.575425 67.888463 -17.682463 26.904447 179.999962 -87.604140 133.503854 26.146043 0.953900 0.000000 3.907324 -0.000000 11.380438 -66.573018 -45.555585 -11.590403 179.999718 -89.659862 -140.318579 -17.333880 2.409761 -0.000000 
192.452300 62.465200 15.084300 56.016104 -13.512141 -89.189190 -170.486835 -74.169956 -147.431745 180.000037 86.846920 -180.000037 -0.000000 -19.256565 -1.406089 0.000000 -1.253976 -0.000000 -126.096415 -64.005488 -133.805084 -180.000037 77.739660 -180.000037 0.000000 -18.901869 7.366101 0.000000 -29.599895 -0.000000 -5.176800 44.158659 -14.348164 -42.186140 77.564264 47.509065 -0.162317 0.000000 -11.466040 71.993131 -18.003163 29.233803 0.007347 -89.978353 -49.636694 27.659514 2.186795 -0.000000 2.751462 -0.000000 12.890866 -72.617618 -44.385743 -17.193760 -179.999510 -89.881163 -137.729862 -15.544104 1.811488 0.000000 
190.510800 61.241200 14.911400 60.308184 -12.062656 -85.233505 -167.230462 -70.111592 -143.056308 180.000037 84.300359 180.000037 0.000000 -19.712546 -1.937891 0.000000 -1.260865 -0.000000 -127.472834 -58.708291 -135.807136 -180.000037 73.450178 -180.000037 -0.000000 -18.581549 6.871995 0.000000 -29.601302 -0.000000 -1.760761 46.206226 -18.054571 -53.425958 78.879054 59.773968 1.743098 -0.000000 -10.307887 74.288077 -19.921917 31.788289 0.000003 -87.232895 -56.370691 29.439778 2.084352 -0.000000 2.744692 -0.000000 12.715045 -79.100426 -44.973378 -21.837414 0.000070 -88.624635 47.955940 -17.313991 2.407384 -0.000000 
187.976800 60.512800 14.559000 64.422413 -11.802928 -82.768622 -169.959098 -67.978777 -142.903709 -180.000037 82.102984 -180.000037 0.000000 -19.851027 -3.268239 -0.000000 -1.313021 0.000000 -130.579724 -55.776331 -137.573780 180.000037 70.564757 180.000037 0.000000 -17.706379 6.734142 -0.000000 -29.604720 -0.000000 -1.031657 48.379691 -19.439005 -51.226374 79.890343 57.534184 2.508428 0.000000 -9.826169 76.104348 -20.893721 33.425992 0.000016 -87.341855 -61.576858 33.359660 1.840400 0.000000 2.041723 0.000000 13.894145 -82.434057 -42.058820 -25.088459 -180.000006 -89.628225 -126.414505 -21.227305 3.727772 0.000000 
184.967900 60.390100 14.241400 68.973572 -10.027137 -79.841778 -170.512072 -66.316568 -140.899680 -180.000037 81.009252 -180.000037 0.000000 -19.328470 -4.605872 -0.000000 -1.311738 -0.000000 -130.549169 -53.054004 -137.410218 -180.000037 69.102447 180.000037 0.000000 -17.057062 6.364184 -0.000000 -29.611420 0.000000 2.621173 50.200958 -22.118157 -29.988726 77.335329 33.917014 2.703338 -0.000000 -8.508315 75.080183 -21.728135 35.948664 -179.999944 -88.544058 116.838333 39.578433 0.951527 -0.000000 1.905893 -0.000000 12.176339 -84.200674 -42.338858 -26.991713 -180.000027 -86.793229 -123.269933 -24.136887 4.712055 0.000000 
